<svg xmlns="http://www.w3.org/2000/svg" viewBox="0 0 512 512" width="512" height="512">
  <defs>
    <linearGradient id="bg" x1="0" y1="0" x2="1" y2="1">
      <stop offset="0%" stop-color="#7c3aed"/>
      <stop offset="100%" stop-color="#db2777"/>
    </linearGradient>
  </defs>
  <rect width="512" height="512" rx="112" fill="url(#bg)"/>
  <g fill="#ffffff">
    <rect x="112" y="216" width="288" height="184" rx="24" opacity="0.95"/>
    <rect x="96" y="168" width="320" height="72" rx="20"/>
    <rect x="236" y="168" width="40" height="232" fill="#7c3aed" opacity="0.85"/>
    <path d="M256 168c-24-56-60-72-88-56-26 15-24 50 6 62 22 9 54 4 82-6zm0 0c24-56 60-72 88-56 26 15 24 50-6 62-22 9-54 4-82-6z"/>
  </g>
</svg>
